<svg xmlns="http://www.w3.org/2000/svg" version="1.1" xmlns:xlink="http://www.w3.org/1999/xlink" width="24" height="24" x="0" y="0" viewBox="0 0 512 512" style="enable-background:new 0 0 512 512" xml:space="preserve"><defs><linearGradient id="a" x1="255.955" x2="255.955" y1="515.72" y2="8.31" gradientTransform="matrix(1 0 0 -1 0 514)" gradientUnits="userSpaceOnUse"><stop offset="0" stop-color="#2078ee"></stop><stop offset="1" stop-color="#7cecff"></stop></linearGradient></defs><g><linearGradient id="a" x1="255.955" x2="255.955" y1="515.72" y2="8.31" gradientTransform="matrix(1 0 0 -1 0 514)" gradientUnits="userSpaceOnUse"><stop offset="0" stop-color="#2078ee"></stop><stop offset="1" stop-color="#7cecff"></stop></linearGradient><path fill="url(&quot;#a&quot;)" d="M259.1 512h-4.7c-.1-.1-.3-.2-.4-.3-13.2-2.9-19.3-10.5-19.3-24v-36.4c-9.3 5.4-18 10.4-26.8 15.5-5.5 3.2-11.3 4.8-17.7 3.1-8.9-2.4-14.4-8.2-16.2-17.1-1.9-9.5 2.2-18.2 10.5-23 15.9-9.2 31.7-18.4 47.7-27.5 1.7-.7 2.7-2.4 2.5-4.2-.1-33.8-.1-67.6-.1-101.3v-3c-.9.5-1.3.6-1.6.8-29.7 17.2-59.4 34.3-89.1 51.4-1.3.6-2.1 2-1.9 3.5.1 17.9.1 35.7 0 53.5 0 1.8-.2 3.6-.4 5.4-1 9.7-10.6 19.9-24.5 18.5-10.1-1.1-19-10.8-19-21.7v-32.6l-1.2.7c-10.6 6.1-21.2 12.2-31.7 18.3-4.7 2.9-10.2 4.1-15.6 3.4-8.5-1.3-15.5-7.4-17.8-15.8-2.3-8.1.4-17.9 7-22.5 7-4.8 14.5-8.8 21.8-13.1 5.1-3 10.3-6 15.7-9.1-9.4-5.4-18.5-10.6-27.6-15.9-8.8-5.1-13.4-14.5-11.4-23.1 3.7-16.1 19.4-22.9 33.9-14.6 15.4 9 30.9 17.8 46.3 26.8 1.6 1.1 3.7 1.1 5.3 0 26.5-15.4 53-30.7 79.6-46 3-1.7 5.9-3.5 9.1-5.4l-14.2-8.2c-25.2-14.5-50.4-29-75.5-43.6-2.3-1.4-3.8-1.3-6.1 0-15 8.8-30.1 17.5-45.2 26.2-4.9 3-10.7 4-16.2 2.9-7.7-1.5-15-8.3-16.6-16.1-1.9-8.8.3-16.6 7.5-22.1 5.1-3.9 10.9-6.7 16.4-10 4.4-2.6 8.7-5.1 13.4-7.8-1.2-.7-2-1.2-2.8-1.7-9.8-5.7-19.6-11.3-29.4-17.1-10-5.8-13.9-18.5-8.8-28.4 5.4-10.6 17.6-15.5 28.2-10.6 6.2 2.8 12 6.6 17.9 10s11.9 6.9 18.2 10.5v-34.5c0-13.8 13.5-24.2 26.8-20.8 10.4 2.6 17 11.2 17 22.4v56.2c-.1 1.5.7 3 2.2 3.6 25.1 14.4 50.1 28.8 75.2 43.3l15.1 8.7c.1-.4.2-.7.2-1.1V112.3c-.1-1-.6-1.8-1.4-2.3-5.6-3.4-11.4-6.6-17.1-9.9-11.2-6.5-22.4-12.8-33.3-19.5-7.5-4.6-11-14.6-8.7-22.8 4.1-14.8 18.9-21.1 32.4-13.6 5.4 3 10.8 6.2 16.2 9.3 3.8 2.2 7.6 4.3 11.8 6.7V23.5c0-11.4 6.4-19.9 16.7-22.5l3-.7h4.7c.3.2.6.3.9.4 11.1 1.9 18.4 10.4 18.4 21.7V60c1.3-.7 2.3-1.2 3.2-1.7 8.2-4.7 16.3-9.5 24.5-14.2 5.6-3.2 11.4-4.4 17.7-2.4 9 2.8 14.4 9.1 15.5 18.3s-2.5 16.8-10.8 21.7c-16.1 9.4-32.2 18.7-48.3 28-1.3.6-2 1.9-1.9 3.2v102.7c0 .6.1 1.3.2 2.2l8.4-4.9c27.2-15.7 54.4-31.4 81.7-47.1 1.9-.9 3-2.8 2.7-4.9-.1-17.6-.1-35.2 0-52.8 0-3.6.6-7.2 1.8-10.6 3.5-9.2 14.1-14.6 24-12.8 9.6 1.7 17.3 10.1 17.6 19.9.3 10.3.2 20.7.2 31.1v3.3l2.8-1.6c9.8-5.6 19.5-11.2 29.2-16.9 4.5-2.7 9.9-3.6 15.1-2.7 9.4 1.7 16 8.6 17.8 18.3 1.5 8-2.6 17.1-10.2 21.8-6.2 3.8-12.6 7.3-18.9 11l-13.7 8c.6.4.9.6 1.1.8 9.4 5.4 18.8 10.7 28 16.3 6.7 3.9 10.6 11.4 9.9 19.1-.9 16.9-18.5 26.2-33.2 17.8-15.8-9.1-31.7-18.3-47.5-27.5-1.3-1-3.1-1-4.4-.1-23.7 13.8-47.5 27.6-71.3 41.3L299 256.5c5.9 3.4 11.4 6.7 16.9 9.9 24.5 14.2 49 28.3 73.6 42.5 1.3 1 3.1 1 4.4.1 16.7-9.7 33.4-19.3 50.2-28.9 5-2.9 11.1-3.5 16.5-1.6 9.3 3 14.5 9.7 15.4 19.2.8 8.6-2.9 15.4-10.1 20.1-5 3.2-10.3 6-15.5 9.1l-14.7 8.5c.7.5 1.1.8 1.5 1l32 18.4c7.4 4.3 11.5 10.8 11.6 19.3.2 16.6-17.8 27.2-32.5 19.2-6.8-3.7-13.5-7.8-20.2-11.7-4.3-2.5-8.6-4.9-13.1-7.5v27.1c0 2.1-.1 4.2-.3 6.2-1.1 11.5-11 19.9-22.6 19.6-11.4-.3-21-10.5-20.9-21.4.1-18.2 0-36.4 0-54.6 0-1.2-.5-2.3-1.4-3-4.9-3-10-5.9-15-8.8-24.1-13.9-48.1-27.8-72.2-41.7-1.4-.8-2.7-1.5-4.4-2.4 0 35 0 69.4.1 103.9.1 1 .7 2 1.6 2.5 7.1 4.2 14.2 8.3 21.4 12.4 9.6 5.6 19.4 11 28.8 17 9 5.7 11.8 17.4 7.2 27.2-4.4 9.5-15.4 14.8-25.4 11.5-5.6-1.9-10.7-5.2-15.9-8.1-5.9-3.2-11.6-6.7-17.8-10.2V490c0 7.2-2.8 13.3-8.8 17.4-2.9 2.1-6.7 3.1-10.3 4.6z" opacity="1" data-original="url(#a)"></path></g></svg>