<svg xmlns="http://www.w3.org/2000/svg" version="1.1" xmlns:xlink="http://www.w3.org/1999/xlink" width="64" height="64" x="0" y="0" viewBox="0 0 24 24" style="enable-background:new 0 0 512 512" xml:space="preserve" class=""><g><path d="M9.861 7.519a.4.4 0 0 0 .496.377c.004-.001.393-.096.941-.096 1.222 0 2.827.447 3.528 2.573a.4.4 0 0 0 .566.229c.101-.053 2.46-1.336 2.754-4.901.001-.086.025-2.143-1.472-3.669C15.097.42 12.537.01 8.863.937c-.106.04-1.048.416-1.361 1.108-.039.095-.348.961.713 2.142.618.688 1.623 2.492 1.646 3.332zM8.237 2.361c.13-.287.629-.568.866-.663 3.23-.807 5.626-.503 6.994.886 1.26 1.279 1.25 3.076 1.251 3.076-.189 2.29-1.335 3.488-1.947 3.973C14.418 7.356 12.438 7 11.298 7c-.272 0-.511.02-.699.043-.244-1.103-1.158-2.689-1.789-3.392-.715-.795-.571-1.29-.573-1.29zM6.793 18.307l2.676-4.185a.402.402 0 0 0-.07-.514c-.015-.013-1.458-1.332-1.163-3.006.003-.013.292-1.329.973-1.987a.4.4 0 0 0-.107-.65c-.052-.024-1.28-.595-2.846-.595-1.93 0-3.529.874-4.658 2.586-.021.048-2.046 4.819 2.633 8.49.065.072.654.705 1.369.705.353.001.849-.152 1.193-.844zm-4.494-7.968C3.253 8.9 4.584 8.17 6.257 8.17c.824 0 1.554.184 2.01.333-.572.829-.801 1.882-.815 1.946-.293 1.662.695 2.983 1.173 3.51l-2.526 3.953c-.22.44-.429.44-.498.44-.304 0-.67-.326-.824-.487-4.231-3.326-2.52-7.414-2.478-7.526zM20.544 13.025c-2.768-.056-5.228-1.257-5.252-1.269a.404.404 0 0 0-.553.219c-.574 1.542-1.586 2.324-3.009 2.324-.708 0-1.251-.206-1.257-.208a.4.4 0 0 0-.543.346c-.13 1.921.307 3.461 1.3 4.576 1.426 1.602 3.466 1.718 3.552 1.722l.02.001.015-.001c4.436-.164 6.176-4.338 6.228-4.474.621-1.135.775-2.011.459-2.603-.299-.558-.868-.625-.96-.633zm-.221 2.893c-.064.157-1.62 3.86-5.516 4.017-.175-.014-1.846-.175-2.986-1.461-.757-.854-1.13-2.025-1.113-3.487.268.059.623.112 1.022.112.952 0 2.635-.329 3.596-2.448.832.357 2.881 1.128 5.167 1.173a.43.43 0 0 1 .309.219c.078.154.191.644-.479 1.875zM9.788 10.94c0 .962.783 1.745 1.745 1.745s1.746-.783 1.746-1.745-.783-1.745-1.746-1.745a1.749 1.749 0 0 0-1.745 1.745zm2.69 0a.946.946 0 0 1-1.89 0 .946.946 0 0 1 1.89 0zM5.952 1.293a.4.4 0 0 0-.289-.746C2.88 1.625.789 4.109.205 7.029a.4.4 0 0 0 .785.158 8.072 8.072 0 0 1 4.962-5.894zM13.33 22.35c-2.533.831-5.485.292-7.567-1.421a.4.4 0 1 0-.508.618 8.804 8.804 0 0 0 8.325 1.563.4.4 0 1 0-.25-.76zM23.614 8.167c0-.001 0-.001 0 0a9.711 9.711 0 0 0-3.777-5.923.4.4 0 0 0-.475.645 8.902 8.902 0 0 1 3.641 7.195c0 .901-.134 1.792-.398 2.647a.4.4 0 0 0 .764.236 9.726 9.726 0 0 0 .245-4.8z" fill="#259A9F" opacity="1" data-original="#000000"></path><path d="M5.931 2.36a6.02 6.02 0 0 0-3.997 5.079.4.4 0 1 0 .796.078 5.22 5.22 0 0 1 3.464-4.402.4.4 0 1 0-.263-.755zM7.295 20.524a.4.4 0 0 0 .108.556 6.113 6.113 0 0 0 3.43 1.047c.559 0 1.116-.076 1.654-.226a.4.4 0 0 0-.214-.771 5.374 5.374 0 0 1-4.423-.714.4.4 0 0 0-.555.108zM19.154 4.509a.4.4 0 0 0-.022.565 7.339 7.339 0 0 1 1.866 6.229 7.934 7.934 0 0 1-.162.739.399.399 0 1 0 .771.211 8.135 8.135 0 0 0-1.887-7.722.398.398 0 0 0-.566-.022z" fill="#259A9F" opacity="1" data-original="#000000"></path></g></svg>