<svg xmlns="http://www.w3.org/2000/svg" version="1.1" xmlns:xlink="http://www.w3.org/1999/xlink" width="64" height="64" x="0" y="0" viewBox="0 0 500 500" style="enable-background:new 0 0 512 512" xml:space="preserve" class=""><g><path fill-rule="evenodd" d="M199.809 371.392a6.325 6.325 0 0 1 8.77 9.116c-10.419 10.018-10.555 18.089-.099 27.692 15.895 14.6 15.866 31.127.074 46.147a6.324 6.324 0 1 1-8.719-9.165c10.448-9.937 10.573-18.026.074-27.668-15.84-14.548-15.804-31.029-.1-46.122zM168.96 233.07a86.579 86.579 0 0 1-2.099-5.758.834.834 0 0 0-.804-.584h-45.422c-22.539 0-43.379 16.07-43.379 38.366v60.497c0 22.296 20.84 38.366 43.379 38.366h258.729c22.539 0 43.379-16.07 43.379-38.366v-60.497c0-22.296-20.84-38.366-43.379-38.366h-45.423a.833.833 0 0 0-.803.585c-11.524 35.462-44.746 60.364-83.138 60.364-36.171 0-67.879-22.117-81.04-54.607zm179.728 118.203H139.487a.847.847 0 0 1-.845-.845v-17.721c0-9.357 10.333-17.013 22.962-17.013h164.968c11.11 0 22.962 6.575 22.962 17.013v17.721c0 .465-.38.845-.846.845zm29.718-67.163c-7.102 0-12.859-5.757-12.859-12.859s5.757-12.859 12.859-12.859 12.859 5.757 12.859 12.859-5.757 12.859-12.859 12.859zm-62.591-141.343a87.457 87.457 0 0 1 14.302 22.525c.24.548.95.682 1.372.259l31.508-31.508c2.886-2.886 6.583-4.155 10.633-3.649l28.419 3.551c4.339.541 8.3-.817 11.392-3.909l15.885-15.885c2.806-2.805 4.163-6.277 4.004-10.242l-1.237-30.768a.845.845 0 0 0-1.442-.564l-28.633 28.633a.816.816 0 0 1-.626.247l-23.987-.792a.844.844 0 0 1-.817-.817l-.792-23.986a.82.82 0 0 1 .247-.626l28.634-28.634a.844.844 0 0 0-.564-1.442l-30.768-1.237c-3.965-.16-7.437 1.197-10.243 4.003l-15.886 15.887c-3.091 3.091-4.45 7.052-3.909 11.39l3.551 28.42c.506 4.05-.763 7.748-3.649 10.633l-27.356 27.356a.847.847 0 0 0-.038 1.155zm-145.932 22.525a87.457 87.457 0 0 1 14.302-22.525.843.843 0 0 0-.039-1.154l-27.356-27.356c-2.886-2.886-4.155-6.584-3.649-10.633l3.551-28.42c.541-4.338-.818-8.299-3.909-11.39l-15.886-15.887c-2.806-2.806-6.278-4.163-10.243-4.003L95.886 45.16a.845.845 0 0 0-.564 1.442l28.634 28.634a.816.816 0 0 1 .247.626l-.792 23.986a.844.844 0 0 1-.817.817l-23.987.792a.82.82 0 0 1-.626-.247L69.349 72.577a.844.844 0 0 0-1.442.564l-1.237 30.768c-.159 3.964 1.198 7.436 4.004 10.242l15.885 15.885c3.092 3.092 7.053 4.451 11.392 3.909l28.419-3.551c4.05-.506 7.747.763 10.633 3.649l31.508 31.508a.843.843 0 0 0 1.372-.259zm27.283-17.85c29.178-29.178 76.49-29.178 105.668 0s29.178 76.49 0 105.668-76.49 29.178-105.668 0-29.178-76.489 0-105.668zm24.449 3.42a6.34 6.34 0 0 1 8.967 0l18.82 18.819a.847.847 0 0 0 1.195 0l18.82-18.819a6.34 6.34 0 0 1 8.967 8.967l-21.796 21.795a.816.816 0 0 0-.248.598v10.867c0 .466.38.845.845.845h10.866a.816.816 0 0 0 .598-.248l21.796-21.795a6.34 6.34 0 0 1 8.967 8.967l-18.82 18.819a.847.847 0 0 0 0 1.195l18.82 18.82a6.34 6.34 0 0 1-8.967 8.967l-21.796-21.796a.816.816 0 0 0-.598-.248h-10.866a.847.847 0 0 0-.845.845v10.867c0 .233.083.433.248.598l21.796 21.796a6.34 6.34 0 0 1-8.967 8.967l-18.82-18.82a.847.847 0 0 0-1.195 0l-18.82 18.82a6.34 6.34 0 0 1-8.967-8.967l21.796-21.796a.816.816 0 0 0 .248-.598V207.46a.847.847 0 0 0-.845-.845h-10.867a.816.816 0 0 0-.598.248l-21.796 21.796a6.34 6.34 0 0 1-8.967-8.967l18.82-18.82a.847.847 0 0 0 0-1.195l-18.82-18.819a6.34 6.34 0 0 1 8.967-8.967l21.796 21.795a.816.816 0 0 0 .598.248h10.867c.466 0 .845-.38.845-.845v-10.867a.816.816 0 0 0-.248-.598l-21.796-21.795a6.34 6.34 0 0 1 0-8.967zm62.242 220.53a6.325 6.325 0 0 1 8.77 9.116c-10.418 10.017-10.555 18.09-.099 27.692 15.896 14.6 15.866 31.127.074 46.147a6.324 6.324 0 1 1-8.719-9.165c10.449-9.938 10.573-18.025.074-27.668-15.84-14.548-15.804-31.029-.1-46.122zm-42.024 0a6.325 6.325 0 0 1 8.77 9.116c-10.418 10.018-10.555 18.089-.099 27.692 15.896 14.6 15.866 31.127.074 46.147a6.324 6.324 0 1 1-8.719-9.165c10.449-9.938 10.573-18.025.074-27.668-15.84-14.548-15.804-31.029-.1-46.122z" clip-rule="evenodd" fill="#259A9F" opacity="1" data-original="#000000" class=""></path></g></svg>