<svg xmlns="http://www.w3.org/2000/svg" version="1.1" xmlns:xlink="http://www.w3.org/1999/xlink" width="64" height="64" x="0" y="0" viewBox="0 0 50 50" style="enable-background:new 0 0 512 512" xml:space="preserve" class=""><g><path d="M12.1 5.2H7c-.6 0-1 .4-1 1v5.1c0 .6.4 1 1 1h5.1c.6 0 1-.4 1-1V6.2c0-.5-.5-1-1-1zm-1 5.1H8V7.2h3.1zM21.8 5.2h-5.1c-.6 0-1 .4-1 1v5.1c0 .6.4 1 1 1h5.1c.6 0 1-.4 1-1V6.2c0-.5-.5-1-1-1zm-1 5.1h-3.1V7.2h3.1zM12.1 22.4H7c-.6 0-1 .4-1 1v5.1c0 .6.4 1 1 1h5.1c.6 0 1-.4 1-1v-5.1c0-.6-.5-1-1-1zm-1 5.1H8v-3.1h3.1zM21.8 22.4h-5.1c-.6 0-1 .4-1 1v5.1c0 .6.4 1 1 1h5.1c.6 0 1-.4 1-1v-5.1c0-.6-.5-1-1-1zm-1 5.1h-3.1v-3.1h3.1zM7 20.9h5.1c.6 0 1-.4 1-1v-5.1c0-.6-.4-1-1-1H7c-.6 0-1 .4-1 1v5.1c0 .5.5 1 1 1zm1-5.1h3.1v3.1H8zM16.7 20.9h5.1c.6 0 1-.4 1-1v-5.1c0-.6-.4-1-1-1h-5.1c-.6 0-1 .4-1 1v5.1c0 .5.5 1 1 1zm1-5.1h3.1v3.1h-3.1z" fill="#259A9F" opacity="1" data-original="#000000" class=""></path><path d="m48.2 32.9-3.1-.7c-.1-.1-.1-.3-.2-.4l1.6-2.7c.2-.4.2-.9-.1-1.2l-2.7-2.7c-.3-.3-.8-.4-1.2-.1l-2.7 1.7c-.1-.1-.3-.1-.4-.2l-.7-3c-.1-.5-.5-.8-1-.8h-3.9c-.5 0-.9.3-1 .8l-.7 3.1c-.1.1-.3.1-.4.2L29 25.3c-.4-.2-.9-.2-1.2.1l-.2.2V2c0-.6-.4-1-1-1H2c-.6 0-1 .4-1 1v45.9c0 .6.4 1 1 1h24.8c.6 0 1-.4 1-1v-1.5l.2.2c.3.3.8.4 1.2.1l2.7-1.7c.1.1.3.1.4.2l.7 3c.1.5.5.8 1 .8h3.9c.5 0 .9-.3 1-.8l.7-3.1c.1-.1.3-.1.4-.2l2.6 1.6c.4.2.9.2 1.2-.1l2.7-2.7c.3-.3.4-.8.1-1.2l-1.7-2.7c.1-.1.1-.3.2-.4l3-.7c.5-.1.8-.5.8-1v-3.9c.1-.4-.2-.8-.7-.9zM18 46.8H9.5v-13H18zm7.3-3 .5.5v2.5H20v-14c0-.6-.4-1-1-1H8.5c-.6 0-1 .4-1 1v14.1H3V3h22.8v24.5l-.6.5c-.3.3-.4.8-.1 1.2l1.7 2.7c-.1.1-.1.3-.2.4l-3 .7c-.5.1-.8.5-.8 1v3.9c0 .5.3.9.8 1l3.1.7c.1.1.1.3.2.4l-1.6 2.7c-.4.3-.3.8 0 1.1zM47 37l-2.8.7c-.3.1-.6.3-.7.7s-.3.8-.5 1.2c-.1.1-.1.2-.1.3v.1c0 .2 0 .3.1.4v.1l1.5 2.5-1.5 1.5-2.5-1.5c-.3-.2-.7-.2-1 0-.4.2-.7.4-1.1.5-.3.1-.6.4-.7.7l-.6 2.8h-2.3l-.7-2.8c-.1-.3-.3-.6-.7-.7s-.8-.3-1.2-.5c-.3-.2-.7-.1-1 0l-2.5 1.5-1.4-1.4V43l1.5-2.5c.2-.3.2-.7 0-1-.2-.4-.3-.7-.5-1.1 0-.1 0-.1-.1-.1-.1-.3-.4-.5-.7-.6l-2.8-.7v-2.3l2.8-.7c.3-.1.6-.3.7-.7s.3-.8.5-1.1.1-.7 0-1l-1.5-2.5.3-.3 1.3-1.3 2.4 1.5c.3.2.7.2 1 0 .4-.2.8-.4 1.1-.5s.6-.4.7-.7l.7-2.8H37l.7 2.8c.1.3.3.6.7.7s.8.3 1.1.5.7.1 1 0l2.5-1.5 1.6 1.6-1.6 2.5c-.2.3-.2.7 0 1 .2.4.4.8.5 1.2.1.3.4.6.7.7l2.8.7z" fill="#259A9F" opacity="1" data-original="#000000" class=""></path><path d="M35.9 30.9c-2.8 0-5 2.3-5 5s2.3 5 5 5c2.8 0 5-2.3 5-5s-2.2-5-5-5zm0 8c-1.7 0-3-1.4-3-3s1.4-3 3-3c1.7 0 3 1.4 3 3s-1.3 3-3 3z" fill="#259A9F" opacity="1" data-original="#000000" class=""></path></g></svg>