<?xml version="1.0" encoding="UTF-8" standalone="no"?>
<!-- Created with Inkscape (http://www.inkscape.org/) -->

<svg
   version="1.1"
   id="svg1"
   width="377.95334"
   height="377.95334"
   viewBox="0 0 377.95334 377.95334"
   sodipodi:docname="Logo.svg"
   inkscape:version="1.3.2 (091e20e, 2023-11-25, custom)"
   xmlns:inkscape="http://www.inkscape.org/namespaces/inkscape"
   xmlns:sodipodi="http://sodipodi.sourceforge.net/DTD/sodipodi-0.dtd"
   xmlns="http://www.w3.org/2000/svg"
   xmlns:svg="http://www.w3.org/2000/svg">
  <defs
     id="defs1">
    <clipPath
       clipPathUnits="userSpaceOnUse"
       id="clipPath3">
      <path
         d="M 0,283.465 H 283.465 V 0 H 0 Z"
         transform="translate(-140.24781,-171.052)"
         id="path3" />
    </clipPath>
    <clipPath
       clipPathUnits="userSpaceOnUse"
       id="clipPath5">
      <path
         d="M 0,283.465 H 283.465 V 0 H 0 Z"
         transform="translate(-119.6245,-120.7219)"
         id="path5" />
    </clipPath>
    <clipPath
       clipPathUnits="userSpaceOnUse"
       id="clipPath7">
      <path
         d="M 0,283.465 H 283.465 V 0 H 0 Z"
         transform="translate(-104.7654,-164.80471)"
         id="path7" />
    </clipPath>
    <clipPath
       clipPathUnits="userSpaceOnUse"
       id="clipPath9">
      <path
         d="M 0,283.465 H 283.465 V 0 H 0 Z"
         transform="translate(-177.2458,-179.1071)"
         id="path9" />
    </clipPath>
    <clipPath
       clipPathUnits="userSpaceOnUse"
       id="clipPath11">
      <path
         d="M 0,283.465 H 283.465 V 0 H 0 Z"
         transform="translate(-148.1295,-208.13401)"
         id="path11" />
    </clipPath>
    <clipPath
       clipPathUnits="userSpaceOnUse"
       id="clipPath13">
      <path
         d="M 0,283.465 H 283.465 V 0 H 0 Z"
         transform="translate(-177.0432,-149.6821)"
         id="path13" />
    </clipPath>
    <clipPath
       clipPathUnits="userSpaceOnUse"
       id="clipPath15">
      <path
         d="M 0,283.465 H 283.465 V 0 H 0 Z"
         transform="translate(-104.7654,-164.80471)"
         id="path15" />
    </clipPath>
    <clipPath
       clipPathUnits="userSpaceOnUse"
       id="clipPath17">
      <path
         d="M 0,283.465 H 283.465 V 0 H 0 Z"
         transform="translate(-118.9158,-178.9394)"
         id="path17" />
    </clipPath>
    <clipPath
       clipPathUnits="userSpaceOnUse"
       id="clipPath19">
      <path
         d="M 0,283.465 H 283.465 V 0 H 0 Z"
         transform="translate(-75.095799,-165.4502)"
         id="path19" />
    </clipPath>
    <clipPath
       clipPathUnits="userSpaceOnUse"
       id="clipPath21">
      <path
         d="M 0,283.465 H 283.465 V 0 H 0 Z"
         transform="translate(-148.1326,-178.6661)"
         id="path21" />
    </clipPath>
    <clipPath
       clipPathUnits="userSpaceOnUse"
       id="clipPath23">
      <path
         d="M 0,283.465 H 283.465 V 0 H 0 Z"
         transform="translate(-148.1109,-149.8436)"
         id="path23" />
    </clipPath>
    <clipPath
       clipPathUnits="userSpaceOnUse"
       id="clipPath25">
      <path
         d="M 0,283.465 H 283.465 V 0 H 0 Z"
         transform="translate(-76.107399,-135.91591)"
         id="path25" />
    </clipPath>
    <clipPath
       clipPathUnits="userSpaceOnUse"
       id="clipPath27">
      <path
         d="M 0,283.465 H 283.465 V 0 H 0 Z"
         transform="translate(-90.897602,-121.1101)"
         id="path27" />
    </clipPath>
    <clipPath
       clipPathUnits="userSpaceOnUse"
       id="clipPath29">
      <path
         d="M 0,283.465 H 283.465 V 0 H 0 Z"
         transform="translate(-148.1109,-149.8436)"
         id="path29" />
    </clipPath>
    <clipPath
       clipPathUnits="userSpaceOnUse"
       id="clipPath31">
      <path
         d="M 0,283.465 H 283.465 V 0 H 0 Z"
         transform="translate(-162.73461,-135.2305)"
         id="path31" />
    </clipPath>
    <clipPath
       clipPathUnits="userSpaceOnUse"
       id="clipPath33">
      <path
         d="M 0,283.465 H 283.465 V 0 H 0 Z"
         transform="translate(-162.3078,-163.8274)"
         id="path33" />
    </clipPath>
    <clipPath
       clipPathUnits="userSpaceOnUse"
       id="clipPath35">
      <path
         d="M 0,283.465 H 283.465 V 0 H 0 Z"
         transform="translate(-177.44961,-120.9445)"
         id="path35" />
    </clipPath>
    <clipPath
       clipPathUnits="userSpaceOnUse"
       id="clipPath37">
      <path
         d="M 0,283.465 H 283.465 V 0 H 0 Z"
         transform="translate(-133.0621,-193.1404)"
         id="path37" />
    </clipPath>
    <clipPath
       clipPathUnits="userSpaceOnUse"
       id="clipPath39">
      <path
         d="M 0,283.465 H 283.465 V 0 H 0 Z"
         transform="translate(-141.0685,-171.87931)"
         id="path39" />
    </clipPath>
    <clipPath
       clipPathUnits="userSpaceOnUse"
       id="clipPath41">
      <path
         d="M 0,283.465 H 283.465 V 0 H 0 Z"
         transform="translate(-137.5387,-168.3683)"
         id="path41" />
    </clipPath>
    <clipPath
       clipPathUnits="userSpaceOnUse"
       id="clipPath43">
      <path
         d="M 0,283.465 H 283.465 V 0 H 0 Z"
         transform="translate(-137.20191,-168.03181)"
         id="path43" />
    </clipPath>
    <clipPath
       clipPathUnits="userSpaceOnUse"
       id="clipPath45">
      <path
         d="M 0,283.465 H 283.465 V 0 H 0 Z"
         transform="translate(-136.8651,-167.6953)"
         id="path45" />
    </clipPath>
    <clipPath
       clipPathUnits="userSpaceOnUse"
       id="clipPath47">
      <path
         d="M 0,283.465 H 283.465 V 0 H 0 Z"
         transform="translate(-136.5283,-167.35861)"
         id="path47" />
    </clipPath>
    <clipPath
       clipPathUnits="userSpaceOnUse"
       id="clipPath49">
      <path
         d="M 0,283.465 H 283.465 V 0 H 0 Z"
         transform="translate(-136.1916,-167.0219)"
         id="path49" />
    </clipPath>
    <clipPath
       clipPathUnits="userSpaceOnUse"
       id="clipPath51">
      <path
         d="M 0,283.465 H 283.465 V 0 H 0 Z"
         transform="translate(-135.855,-166.68511)"
         id="path51" />
    </clipPath>
    <clipPath
       clipPathUnits="userSpaceOnUse"
       id="clipPath53">
      <path
         d="M 0,283.465 H 283.465 V 0 H 0 Z"
         transform="translate(-135.5185,-166.34821)"
         id="path53" />
    </clipPath>
    <clipPath
       clipPathUnits="userSpaceOnUse"
       id="clipPath55">
      <path
         d="M 0,283.465 H 283.465 V 0 H 0 Z"
         transform="translate(-135.1822,-166.01131)"
         id="path55" />
    </clipPath>
    <clipPath
       clipPathUnits="userSpaceOnUse"
       id="clipPath57">
      <path
         d="M 0,283.465 H 283.465 V 0 H 0 Z"
         transform="translate(-138.21291,-169.0412)"
         id="path57" />
    </clipPath>
    <clipPath
       clipPathUnits="userSpaceOnUse"
       id="clipPath59">
      <path
         d="M 0,283.465 H 283.465 V 0 H 0 Z"
         transform="translate(-134.8461,-165.6742)"
         id="path59" />
    </clipPath>
    <clipPath
       clipPathUnits="userSpaceOnUse"
       id="clipPath61">
      <path
         d="M 0,283.465 H 283.465 V 0 H 0 Z"
         transform="translate(-134.5107,-165.3371)"
         id="path61" />
    </clipPath>
    <clipPath
       clipPathUnits="userSpaceOnUse"
       id="clipPath63">
      <path
         d="M 0,283.465 H 283.465 V 0 H 0 Z"
         transform="translate(-138.55071,-169.37761)"
         id="path63" />
    </clipPath>
    <clipPath
       clipPathUnits="userSpaceOnUse"
       id="clipPath65">
      <path
         d="M 0,283.465 H 283.465 V 0 H 0 Z"
         transform="translate(-138.8889,-169.7138)"
         id="path65" />
    </clipPath>
    <clipPath
       clipPathUnits="userSpaceOnUse"
       id="clipPath67">
      <path
         d="M 0,283.465 H 283.465 V 0 H 0 Z"
         transform="translate(-139.2279,-170.04961)"
         id="path67" />
    </clipPath>
    <clipPath
       clipPathUnits="userSpaceOnUse"
       id="clipPath69">
      <path
         d="M 0,283.465 H 283.465 V 0 H 0 Z"
         transform="translate(-139.9051,-170.72101)"
         id="path69" />
    </clipPath>
    <clipPath
       clipPathUnits="userSpaceOnUse"
       id="clipPath71">
      <path
         d="M 0,283.465 H 283.465 V 0 H 0 Z"
         transform="translate(-139.56831,-170.3842)"
         id="path71" />
    </clipPath>
    <clipPath
       clipPathUnits="userSpaceOnUse"
       id="clipPath73">
      <path
         d="M 0,283.465 H 283.465 V 0 H 0 Z"
         transform="translate(-140.2438,-171.0566)"
         id="path73" />
    </clipPath>
    <clipPath
       clipPathUnits="userSpaceOnUse"
       id="clipPath75">
      <path
         d="M 0,283.465 H 283.465 V 0 H 0 Z"
         transform="translate(-140.58291,-171.39241)"
         id="path75" />
    </clipPath>
    <clipPath
       clipPathUnits="userSpaceOnUse"
       id="clipPath77">
      <path
         d="M 0,283.465 H 283.465 V 0 H 0 Z"
         transform="translate(-137.8756,-168.70471)"
         id="path77" />
    </clipPath>
  </defs>
  <sodipodi:namedview
     id="namedview1"
     pagecolor="#505050"
     bordercolor="#eeeeee"
     borderopacity="1"
     inkscape:showpageshadow="0"
     inkscape:pageopacity="0"
     inkscape:pagecheckerboard="0"
     inkscape:deskcolor="#505050"
     showgrid="false"
     inkscape:zoom="1.3467271"
     inkscape:cx="188.97667"
     inkscape:cy="188.97667"
     inkscape:window-width="1366"
     inkscape:window-height="705"
     inkscape:window-x="-8"
     inkscape:window-y="-8"
     inkscape:window-maximized="1"
     inkscape:current-layer="g1">
    <inkscape:page
       x="0"
       y="0"
       inkscape:label="1"
       id="page1"
       width="377.95334"
       height="377.95334"
       margin="100.50613 82.054665 99.769333 81.333336"
       bleed="0" />
  </sodipodi:namedview>
  <g
     id="g1"
     inkscape:groupmode="layer"
     inkscape:label="1">
    <g
       id="group-MC0">
      <path
         id="path2"
         d="m 0,0 -0.004,0.005 c -0.111,-0.113 -0.222,-0.227 -0.334,-0.34 l -0.005,0.004 c -0.111,-0.113 -0.222,-0.226 -0.332,-0.339 0,0 -0.006,0.003 -0.006,0.003 -0.111,-0.112 -0.221,-0.225 -0.332,-0.338 l -0.002,-0.094 -0.005,0.097 c -0.11,-0.113 -0.22,-0.225 -0.331,-0.337 l -0.005,-0.123 -0.003,0.124 c -0.11,-0.112 -0.219,-0.224 -0.329,-0.336 l 0.003,-0.142 -0.012,0.142 C -1.806,-1.786 -1.916,-1.898 -2.025,-2.01 l 0.011,-0.149 -0.021,0.148 c -0.109,-0.112 -0.218,-0.223 -0.327,-0.335 l 0.017,-0.153 -0.027,0.152 C -2.481,-2.459 -2.59,-2.571 -2.699,-2.682 l 0.019,-0.155 -0.029,0.153 c -0.109,-0.111 -0.218,-0.223 -0.327,-0.335 l 0.021,-0.155 c 0,0 -0.031,0.154 -0.031,0.154 -0.109,-0.112 -0.218,-0.224 -0.326,-0.335 l 0.02,-0.156 -0.031,0.154 C -3.491,-3.468 -3.6,-3.58 -3.709,-3.692 l 0.022,-0.157 -0.032,0.156 -0.327,-0.335 0.025,-0.158 -0.035,0.156 c -0.109,-0.112 -0.218,-0.223 -0.326,-0.335 l 0.03,-0.16 -0.041,0.158 -0.326,-0.334 0.034,-0.161 -0.044,0.158 c -0.109,-0.111 -0.218,-0.223 -0.326,-0.334 l 0.037,-0.163 -0.048,0.16 c -0.108,-0.111 -0.217,-0.223 -0.326,-0.334 l 0.036,-0.163 -0.046,0.16 C -5.51,-5.49 -5.619,-5.601 -5.728,-5.713 l 0.031,-0.163 -0.04,0.161 c -0.109,-0.112 -0.218,-0.224 -0.327,-0.336 l -0.017,0.008 c -4.812,-4.761 -9.609,-9.538 -14.452,-14.267 -0.837,-0.816 -0.137,-1.125 0.301,-1.563 4.194,-4.196 8.424,-8.357 12.569,-12.602 0.883,-0.904 1.318,-0.897 2.202,0.001 4.397,4.466 8.875,8.852 13.324,13.266 4.875,-4.871 9.749,-9.742 14.624,-14.614 -0.378,-0.41 -0.741,-0.834 -1.135,-1.227 -4,-4.004 -8.01,-7.998 -12.003,-12.009 -0.417,-0.419 -1.211,-0.748 -0.37,-1.58 4.461,-4.414 8.894,-8.858 13.318,-13.309 0.451,-0.454 0.731,-0.505 1.206,-0.023 4.554,4.633 9.129,9.245 13.699,13.863 4.764,4.501 9.345,9.187 13.913,13.885 4.755,4.744 9.509,9.488 14.264,14.232 0.471,0.47 1.054,0.839 0.27,1.608 -4.671,4.585 -9.308,9.204 -13.957,13.812 -1.914,1.947 -3.797,3.928 -5.751,5.836 -2.991,2.919 -5.783,6.042 -8.943,8.789 -4.839,4.828 -9.677,9.657 -14.515,14.485 -4.76,4.955 -9.592,9.837 -14.602,14.542 -0.328,0.045 -0.656,0.126 -0.985,0.131 -7.879,0.103 -15.758,0.231 -23.637,0.273 -1.863,0.01 -3.758,0.338 -5.601,-0.252 -4.841,-4.608 -9.561,-9.337 -14.196,-14.15 -2.586,-2.551 -5.201,-5.075 -7.75,-7.663 -2.194,-2.228 -4.569,-4.281 -6.549,-6.717 -4.882,-4.659 -9.634,-9.446 -14.315,-14.306 -4.541,-4.498 -9.076,-9.001 -13.629,-13.486 -0.534,-0.525 -0.679,-0.9 -0.067,-1.501 4.917,-4.834 9.808,-9.695 14.708,-14.547 4.825,-5.04 9.73,-10.001 14.79,-14.806 4.857,-4.871 9.714,-9.743 14.572,-14.615 4.624,-4.654 9.258,-9.3 13.861,-13.976 0.586,-0.595 1.227,-0.668 1.977,-0.667 8.525,0.011 17.05,0.004 25.575,0.017 0.409,0.001 0.903,-0.214 1.426,0.579 -1.061,0.967 -2.212,1.941 -3.278,3 -8.478,8.415 -16.94,16.847 -25.406,25.274 -4.855,4.847 -9.71,9.695 -14.564,14.542 -1.834,1.865 -3.67,3.727 -5.501,5.594 -3.081,3.141 -6.158,6.284 -9.237,9.426 4.814,4.84 9.629,9.681 14.443,14.521 4.816,4.612 9.546,9.31 14.15,14.134 4.723,4.676 9.447,9.352 14.17,14.027 C -2.348,17.137 2.466,12.36 7.281,7.582 5.127,5.331 2.974,3.079 0.821,0.827 0.655,0.667 0.49,0.506 0.324,0.345 L 0.335,0.34 C 0.223,0.227 0.112,0.113 0,0"
         style="fill:#ffffff;fill-opacity:1;fill-rule:nonzero;stroke:none"
         transform="matrix(1.3333333,0,0,-1.3333333,186.99707,149.884)"
         clip-path="url(#clipPath3)" />
      <path
         id="path4"
         d="m 0,0 c 8.467,-8.427 16.929,-16.858 25.406,-25.274 1.067,-1.059 2.217,-2.032 3.278,-2.999 -0.523,-0.794 -1.017,-0.579 -1.425,-0.58 -8.526,-0.013 -17.051,-0.006 -25.576,-0.017 -0.75,-10e-4 -1.391,0.072 -1.976,0.667 -4.603,4.676 -9.238,9.322 -13.862,13.976 C -9.436,-9.485 -4.718,-4.742 0,0"
         style="fill:#323d5c;fill-opacity:1;fill-rule:nonzero;stroke:none"
         transform="matrix(1.3333333,0,0,-1.3333333,159.49933,216.9908)"
         clip-path="url(#clipPath5)" />
      <path
         id="path6"
         d="m 0,0 c -4.814,-4.84 -9.628,-9.68 -14.442,-14.519 10e-4,0 -0.057,-0.004 -0.057,-0.004 -0.532,0.085 -0.881,0.448 -1.238,0.805 -4.417,4.419 -8.835,8.837 -13.253,13.256 -0.315,0.314 -0.665,0.608 -0.68,1.108 4.681,4.859 9.434,9.647 14.315,14.305 0.695,-0.296 1.132,-0.9 1.646,-1.406 C -9.135,9.034 -4.569,4.516 0,0"
         style="fill:#4dbc58;fill-opacity:1;fill-rule:nonzero;stroke:none"
         transform="matrix(1.3333333,0,0,-1.3333333,139.6872,158.21373)"
         clip-path="url(#clipPath7)" />
      <path
         id="path8"
         d="m 0,0 c 3.16,-2.747 5.952,-5.87 8.943,-8.79 1.954,-1.907 3.837,-3.888 5.751,-5.835 -3.427,-3.47 -6.831,-6.962 -10.292,-10.398 -1.506,-1.495 -2.858,-3.158 -4.604,-4.402 -0.765,0.065 -1.111,0.714 -1.576,1.171 -4.395,4.316 -8.775,8.647 -13.16,12.974 0.008,0.22 0.016,0.439 0.024,0.659 z"
         style="fill:#3c9c9f;fill-opacity:1;fill-rule:nonzero;stroke:none"
         transform="matrix(1.3333333,0,0,-1.3333333,236.32773,139.14387)"
         clip-path="url(#clipPath9)" />
      <path
         id="path10"
         d="m 0,0 c 5.009,-4.705 9.842,-9.587 14.601,-14.542 -0.519,-0.578 -1.016,-1.179 -1.562,-1.732 -4.34,-4.403 -8.689,-8.797 -13.036,-13.194 -0.201,-0.011 -0.403,-0.021 -0.604,-0.032 -4.814,4.778 -9.629,9.555 -14.443,14.332 -0.023,0.056 -0.031,0.114 -0.023,0.174 C -10.045,-9.996 -5.022,-4.998 0,0"
         style="fill:#87ce43;fill-opacity:1;fill-rule:nonzero;stroke:none"
         transform="matrix(1.3333333,0,0,-1.3333333,197.506,100.44133)"
         clip-path="url(#clipPath11)" />
      <path
         id="path12"
         d="m 0,0 c 1.747,1.244 3.098,2.907 4.604,4.402 3.461,3.436 6.865,6.929 10.293,10.398 4.648,-4.608 9.285,-9.228 13.957,-13.812 0.784,-0.769 0.2,-1.138 -0.271,-1.608 -4.754,-4.744 -9.509,-9.488 -14.264,-14.232 -2.313,2.353 -4.594,4.739 -6.949,7.05 C 4.939,-5.415 2.693,-2.839 0.056,-0.664 0.037,-0.443 0.019,-0.221 0,0"
         style="fill:#3c9c9f;fill-opacity:1;fill-rule:nonzero;stroke:none"
         transform="matrix(1.3333333,0,0,-1.3333333,236.0576,178.3772)"
         clip-path="url(#clipPath13)" />
      <path
         id="path14"
         d="m 0,0 c -4.569,4.516 -9.135,9.034 -13.709,13.545 -0.514,0.506 -0.951,1.11 -1.646,1.406 1.981,2.436 4.355,4.489 6.55,6.717 2.548,2.589 5.163,5.112 7.749,7.663 0.449,-0.497 0.867,-1.027 1.351,-1.487 C 5.003,23.364 9.713,18.887 14.15,14.135 9.546,9.311 4.816,4.612 0,0"
         style="fill:#4dbc58;fill-opacity:1;fill-rule:nonzero;stroke:none"
         transform="matrix(1.3333333,0,0,-1.3333333,139.6872,158.21373)"
         clip-path="url(#clipPath15)" />
      <path
         id="path16"
         d="m 0,0 c -4.438,4.752 -9.147,9.23 -13.855,13.709 -0.484,0.461 -0.903,0.99 -1.351,1.488 4.635,4.813 9.355,9.542 14.196,14.149 C 4.042,24.297 9.094,19.249 14.146,14.201 14.139,14.141 14.147,14.082 14.169,14.026 9.447,9.351 4.723,4.676 0,0"
         style="fill:#4dbc58;fill-opacity:1;fill-rule:nonzero;stroke:none"
         transform="matrix(1.3333333,0,0,-1.3333333,158.5544,139.36747)"
         clip-path="url(#clipPath17)" />
      <path
         id="path18"
         d="m 0,0 c 0.014,-0.499 0.364,-0.793 0.679,-1.108 4.418,-4.418 8.837,-8.836 13.253,-13.256 0.357,-0.357 0.706,-0.72 1.238,-0.804 -0.58,-0.606 -1.153,-1.22 -1.744,-1.817 C 9.29,-21.17 5.15,-25.352 1.012,-29.534 c -4.9,4.852 -9.791,9.713 -14.708,14.547 -0.612,0.601 -0.467,0.975 0.067,1.501 C -9.076,-9.001 -4.541,-4.498 0,0"
         style="fill:#4dbc58;fill-opacity:1;fill-rule:nonzero;stroke:none"
         transform="matrix(1.3333333,0,0,-1.3333333,100.12773,157.35307)"
         clip-path="url(#clipPath19)" />
      <path
         id="path20"
         d="m 0,0 c 4.347,4.397 8.696,8.791 13.036,13.194 0.546,0.553 1.042,1.154 1.562,1.732 4.839,-4.829 9.677,-9.657 14.515,-14.485 -4.971,-4.874 -9.943,-9.747 -14.914,-14.621 -0.991,0.563 -1.673,1.469 -2.448,2.261 C 7.847,-7.933 3.728,-4.159 0,0"
         style="fill:#87ce43;fill-opacity:1;fill-rule:nonzero;stroke:none"
         transform="matrix(1.3333333,0,0,-1.3333333,197.51013,139.73187)"
         clip-path="url(#clipPath21)" />
      <path
         id="path22"
         d="m 0,0 c -4.449,-4.414 -8.927,-8.8 -13.324,-13.265 -0.884,-0.898 -1.319,-0.906 -2.202,-0.002 -4.145,4.245 -8.375,8.406 -12.569,12.603 -0.438,0.438 -1.138,0.746 -0.301,1.563 4.843,4.729 9.64,9.506 14.452,14.266 0.035,-0.527 -0.154,-1.038 0.351,-1.532 C -9.045,9.182 -4.531,4.697 -0.006,0.221 -0.036,0.147 -0.034,0.073 0,0"
         style="fill:#87ce43;fill-opacity:1;fill-rule:nonzero;stroke:none"
         transform="matrix(1.3333333,0,0,-1.3333333,197.4812,178.16187)"
         clip-path="url(#clipPath23)" />
      <path
         id="path24"
         d="m 0,0 c 4.139,4.183 8.279,8.364 12.415,12.549 0.59,0.597 1.163,1.211 1.744,1.817 0,-10e-4 0.058,0.004 0.057,0.003 3.078,-3.143 6.156,-6.286 9.236,-9.427 1.831,-1.867 3.667,-3.729 5.501,-5.594 C 24.112,-5.25 19.414,-9.991 14.79,-14.806 9.73,-10 4.825,-5.04 0,0"
         style="fill:#323d5c;fill-opacity:1;fill-rule:nonzero;stroke:none"
         transform="matrix(1.3333333,0,0,-1.3333333,101.47653,196.73213)"
         clip-path="url(#clipPath25)" />
      <path
         id="path26"
         d="M 0,0 C 4.624,4.815 9.322,9.556 14.163,14.154 19.018,9.306 23.872,4.459 28.727,-0.388 24.009,-5.13 19.29,-9.873 14.572,-14.615 9.715,-9.743 4.857,-4.872 0,0"
         style="fill:#323d5c;fill-opacity:1;fill-rule:nonzero;stroke:none"
         transform="matrix(1.3333333,0,0,-1.3333333,121.1968,216.4732)"
         clip-path="url(#clipPath27)" />
      <path
         id="path28"
         d="m 0,0 c -0.034,0.073 -0.036,0.147 -0.006,0.221 1.155,0.631 1.904,1.708 2.825,2.592 3.835,3.681 7.401,7.634 11.378,11.171 4.384,-4.327 8.765,-8.658 13.16,-12.975 0.465,-0.456 0.811,-1.105 1.576,-1.17 0.018,-0.222 0.036,-0.443 0.055,-0.665 -4.815,-4.439 -9.364,-9.146 -13.923,-13.842 -0.147,0.018 -0.294,0.037 -0.441,0.055 C 9.749,-9.742 4.875,-4.871 0,0"
         style="fill:#3c9c9f;fill-opacity:1;fill-rule:nonzero;stroke:none"
         transform="matrix(1.3333333,0,0,-1.3333333,197.4812,178.16187)"
         clip-path="url(#clipPath29)" />
      <path
         id="path30"
         d="m 0,0 c 0.147,-0.018 0.294,-0.037 0.442,-0.055 4.685,-4.817 9.39,-9.614 14.273,-14.231 -4.569,-4.618 -9.145,-9.23 -13.699,-13.862 -0.474,-0.483 -0.755,-0.431 -1.206,0.023 -4.424,4.451 -8.857,8.894 -13.318,13.308 -0.841,0.832 -0.047,1.161 0.37,1.58 3.993,4.012 8.003,8.006 12.003,12.009 C -0.741,-0.834 -0.378,-0.41 0,0"
         style="fill:#3c9c9f;fill-opacity:1;fill-rule:nonzero;stroke:none"
         transform="matrix(1.3333333,0,0,-1.3333333,216.97947,197.646)"
         clip-path="url(#clipPath31)" />
      <path
         id="path32"
         d="m 0,0 c -3.976,-3.537 -7.543,-7.49 -11.378,-11.171 -0.921,-0.884 -1.669,-1.961 -2.824,-2.592 -4.525,4.476 -9.04,8.961 -13.588,13.412 -0.505,0.494 -0.316,1.006 -0.35,1.533 -10e-4,0 0.016,-0.008 0.017,-0.01 0.275,-0.046 0.385,0.065 0.326,0.338 l 0.04,-0.161 c 0,0 -0.031,0.163 -0.03,0.161 0.276,-0.048 0.386,0.063 0.325,0.337 l 0.046,-0.161 c 0,0 -0.035,0.163 -0.034,0.162 0.277,-0.05 0.386,0.061 0.324,0.336 l 0.049,-0.16 c 0,0 -0.038,0.163 -0.037,0.161 0.278,-0.051 0.387,0.06 0.325,0.336 l 0.044,-0.159 c 0,0 -0.034,0.161 -0.032,0.16 0.279,-0.052 0.388,0.059 0.324,0.336 L -26.412,2.7 c 0,0 -0.03,0.16 -0.029,0.159 0.28,-0.053 0.389,0.058 0.325,0.336 l 0.035,-0.156 c 0,0 -0.025,0.157 -0.023,0.156 0.28,-0.053 0.389,0.059 0.325,0.336 l 0.032,-0.155 c 0,0 -0.022,0.157 -0.021,0.156 0.28,-0.053 0.389,0.059 0.325,0.336 l 0.031,-0.154 c 0,0 -0.02,0.155 -0.019,0.154 0.28,-0.052 0.389,0.059 0.325,0.336 l 0.031,-0.154 c 0,0 -0.021,0.156 -0.019,0.155 0.279,-0.052 0.388,0.059 0.325,0.336 l 0.029,-0.153 c 0,0 -0.019,0.154 -0.017,0.153 0.278,-0.051 0.387,0.06 0.325,0.336 l 0.027,-0.152 c 0,0 -0.017,0.154 -0.016,0.152 0.278,-0.05 0.387,0.061 0.326,0.337 l 0.021,-0.149 c 0,0 -0.011,0.15 -0.01,0.148 0.277,-0.049 0.387,0.063 0.327,0.337 l 0.012,-0.141 c 0,0 -0.003,0.141 -0.002,0.14 0.276,-0.048 0.386,0.064 0.328,0.337 l 0.003,-0.123 c 0,0 0.005,0.122 0.007,0.121 0.274,-0.046 0.384,0.066 0.329,0.338 l 0.005,-0.096 c 0,0 0.002,0.094 0.003,0.093 0.272,-0.044 0.383,0.069 0.331,0.339 0,0 0.006,-0.003 0.007,-0.004 0.27,-0.041 0.381,0.071 0.331,0.34 0,0 0.005,-0.004 0.006,-0.005 0.268,-0.039 0.379,0.074 0.333,0.34 0,0 0.004,-0.004 0.005,-0.005 0.266,-0.037 0.377,0.077 0.334,0.341 0,0 -0.011,0.005 -0.01,0.004 0.399,-0.079 0.453,0.196 0.496,0.483 2.153,2.252 4.306,4.503 6.46,6.755 0.201,0.01 0.403,0.021 0.604,0.032 C -10.447,10.68 -6.328,6.906 -2.425,2.92 -1.649,2.128 -0.968,1.222 0.024,0.659 0.016,0.439 0.008,0.22 0,0"
         style="fill:#87ce43;fill-opacity:1;fill-rule:nonzero;stroke:none"
         transform="matrix(1.3333333,0,0,-1.3333333,216.4104,159.5168)"
         clip-path="url(#clipPath33)" />
      <path
         id="path34"
         d="m 0,0 c -4.883,4.617 -9.588,9.414 -14.273,14.231 4.559,4.696 9.107,9.403 13.922,13.842 2.637,-2.175 4.884,-4.751 7.315,-7.137 2.354,-2.311 4.635,-4.698 6.949,-7.051 C 9.345,9.188 4.764,4.502 0,0"
         style="fill:#3c9c9f;fill-opacity:1;fill-rule:nonzero;stroke:none"
         transform="matrix(1.3333333,0,0,-1.3333333,236.59947,216.694)"
         clip-path="url(#clipPath35)" />
      <path
         id="path36"
         d="m 0,0 c -5.052,5.048 -10.105,10.096 -15.157,15.145 1.843,0.591 3.738,0.262 5.602,0.252 7.879,-0.042 15.758,-0.169 23.637,-0.273 0.329,-0.004 0.657,-0.085 0.985,-0.13 C 10.045,9.996 5.022,4.998 0,0"
         style="fill:#4dbc58;fill-opacity:1;fill-rule:nonzero;stroke:none"
         transform="matrix(1.3333333,0,0,-1.3333333,177.41613,120.4328)"
         clip-path="url(#clipPath37)" />
      <path
         id="path38"
         d="M 0,0 C -0.043,-0.287 -0.097,-0.562 -0.496,-0.483 -0.331,-0.321 -0.166,-0.161 0,0"
         style="fill:#87ce43;fill-opacity:1;fill-rule:nonzero;stroke:none"
         transform="matrix(1.3333333,0,0,-1.3333333,188.09133,148.78093)"
         clip-path="url(#clipPath39)" />
      <path
         id="path40"
         d="M 0,0 C 0.063,-0.277 -0.046,-0.388 -0.325,-0.336 -0.218,-0.223 -0.109,-0.112 0,0"
         style="fill:#87ce43;fill-opacity:1;fill-rule:nonzero;stroke:none"
         transform="matrix(1.3333333,0,0,-1.3333333,183.38493,153.46227)"
         clip-path="url(#clipPath41)" />
      <path
         id="path42"
         d="M 0,0 C 0.064,-0.277 -0.046,-0.389 -0.325,-0.336 -0.218,-0.223 -0.109,-0.112 0,0"
         style="fill:#87ce43;fill-opacity:1;fill-rule:nonzero;stroke:none"
         transform="matrix(1.3333333,0,0,-1.3333333,182.93587,153.91093)"
         clip-path="url(#clipPath43)" />
      <path
         id="path44"
         d="M 0,0 C 0.064,-0.277 -0.045,-0.389 -0.325,-0.336 -0.218,-0.223 -0.109,-0.112 0,0"
         style="fill:#87ce43;fill-opacity:1;fill-rule:nonzero;stroke:none"
         transform="matrix(1.3333333,0,0,-1.3333333,182.4868,154.3596)"
         clip-path="url(#clipPath45)" />
      <path
         id="path46"
         d="M 0,0 C 0.064,-0.277 -0.045,-0.389 -0.325,-0.336 -0.217,-0.223 -0.109,-0.112 0,0"
         style="fill:#87ce43;fill-opacity:1;fill-rule:nonzero;stroke:none"
         transform="matrix(1.3333333,0,0,-1.3333333,182.03773,154.80853)"
         clip-path="url(#clipPath47)" />
      <path
         id="path48"
         d="M 0,0 C 0.064,-0.277 -0.045,-0.388 -0.325,-0.336 -0.217,-0.223 -0.109,-0.112 0,0"
         style="fill:#87ce43;fill-opacity:1;fill-rule:nonzero;stroke:none"
         transform="matrix(1.3333333,0,0,-1.3333333,181.5888,155.25747)"
         clip-path="url(#clipPath49)" />
      <path
         id="path50"
         d="M 0,0 C 0.063,-0.277 -0.046,-0.388 -0.325,-0.336 -0.217,-0.223 -0.109,-0.111 0,0"
         style="fill:#87ce43;fill-opacity:1;fill-rule:nonzero;stroke:none"
         transform="matrix(1.3333333,0,0,-1.3333333,181.14,155.70653)"
         clip-path="url(#clipPath51)" />
      <path
         id="path52"
         d="M 0,0 C 0.063,-0.276 -0.046,-0.387 -0.325,-0.335 -0.217,-0.223 -0.109,-0.111 0,0"
         style="fill:#87ce43;fill-opacity:1;fill-rule:nonzero;stroke:none"
         transform="matrix(1.3333333,0,0,-1.3333333,180.69133,156.15573)"
         clip-path="url(#clipPath53)" />
      <path
         id="path54"
         d="M 0,0 C 0.062,-0.275 -0.048,-0.386 -0.325,-0.336 -0.217,-0.223 -0.109,-0.112 0,0"
         style="fill:#87ce43;fill-opacity:1;fill-rule:nonzero;stroke:none"
         transform="matrix(1.3333333,0,0,-1.3333333,180.24293,156.60493)"
         clip-path="url(#clipPath55)" />
      <path
         id="path56"
         d="M 0,0 C 0.061,-0.275 -0.048,-0.387 -0.326,-0.336 -0.218,-0.223 -0.109,-0.112 0,0"
         style="fill:#87ce43;fill-opacity:1;fill-rule:nonzero;stroke:none"
         transform="matrix(1.3333333,0,0,-1.3333333,184.28387,152.56507)"
         clip-path="url(#clipPath57)" />
      <path
         id="path58"
         d="M 0,0 C 0.06,-0.274 -0.049,-0.385 -0.325,-0.337 -0.217,-0.224 -0.109,-0.112 0,0"
         style="fill:#87ce43;fill-opacity:1;fill-rule:nonzero;stroke:none"
         transform="matrix(1.3333333,0,0,-1.3333333,179.7948,157.0544)"
         clip-path="url(#clipPath59)" />
      <path
         id="path60"
         d="M 0,0 C 0.059,-0.273 -0.051,-0.384 -0.326,-0.337 -0.218,-0.224 -0.109,-0.112 0,0"
         style="fill:#87ce43;fill-opacity:1;fill-rule:nonzero;stroke:none"
         transform="matrix(1.3333333,0,0,-1.3333333,179.3476,157.50387)"
         clip-path="url(#clipPath61)" />
      <path
         id="path62"
         d="M 0,0 C 0.06,-0.274 -0.05,-0.386 -0.327,-0.337 -0.219,-0.224 -0.109,-0.112 0,0"
         style="fill:#87ce43;fill-opacity:1;fill-rule:nonzero;stroke:none"
         transform="matrix(1.3333333,0,0,-1.3333333,184.73427,152.11653)"
         clip-path="url(#clipPath63)" />
      <path
         id="path64"
         d="M 0,0 C 0.058,-0.273 -0.052,-0.385 -0.328,-0.337 -0.219,-0.224 -0.11,-0.112 0,0"
         style="fill:#87ce43;fill-opacity:1;fill-rule:nonzero;stroke:none"
         transform="matrix(1.3333333,0,0,-1.3333333,185.1852,151.66827)"
         clip-path="url(#clipPath65)" />
      <path
         id="path66"
         d="M 0,0 C 0.055,-0.272 -0.056,-0.384 -0.33,-0.338 -0.22,-0.225 -0.11,-0.112 0,0"
         style="fill:#87ce43;fill-opacity:1;fill-rule:nonzero;stroke:none"
         transform="matrix(1.3333333,0,0,-1.3333333,185.6372,151.22053)"
         clip-path="url(#clipPath67)" />
      <path
         id="path68"
         d="M 0,0 C 0.049,-0.268 -0.062,-0.381 -0.332,-0.34 -0.222,-0.226 -0.111,-0.113 0,0"
         style="fill:#87ce43;fill-opacity:1;fill-rule:nonzero;stroke:none"
         transform="matrix(1.3333333,0,0,-1.3333333,186.54013,150.32533)"
         clip-path="url(#clipPath69)" />
      <path
         id="path70"
         d="M 0,0 C 0.049,-0.268 -0.062,-0.381 -0.332,-0.34 -0.222,-0.226 -0.111,-0.113 0,0"
         style="fill:#87ce43;fill-opacity:1;fill-rule:nonzero;stroke:none"
         transform="matrix(1.3333333,0,0,-1.3333333,186.09107,150.7744)"
         clip-path="url(#clipPath71)" />
      <path
         id="path72"
         d="M 0,0 C 0.046,-0.266 -0.065,-0.379 -0.333,-0.34 -0.223,-0.226 -0.111,-0.113 0,0"
         style="fill:#87ce43;fill-opacity:1;fill-rule:nonzero;stroke:none"
         transform="matrix(1.3333333,0,0,-1.3333333,186.99173,149.87787)"
         clip-path="url(#clipPath73)" />
      <path
         id="path74"
         d="M 0,0 C 0.043,-0.264 -0.068,-0.378 -0.334,-0.341 -0.223,-0.227 -0.112,-0.113 0,0"
         style="fill:#87ce43;fill-opacity:1;fill-rule:nonzero;stroke:none"
         transform="matrix(1.3333333,0,0,-1.3333333,187.44387,149.43013)"
         clip-path="url(#clipPath75)" />
      <path
         id="path76"
         d="M 0,0 C 0.062,-0.276 -0.047,-0.388 -0.325,-0.336 -0.218,-0.223 -0.109,-0.112 0,0"
         style="fill:#87ce43;fill-opacity:1;fill-rule:nonzero;stroke:none"
         transform="matrix(1.3333333,0,0,-1.3333333,183.83413,153.01373)"
         clip-path="url(#clipPath77)" />
      <path
         id="path78"
         d="m 11.403277,-11.114462 c -0.105469,-1.111532 -0.210938,-2.519474 -0.246094,-3.346948 H 0.97358906 v 0.67927 c 1.74609374,0.111153 1.94531254,0.234657 1.94531254,2.198365 v 8.6823044 c 0,1.97605795 -0.1992188,2.1242623 -2.00390629,2.26011628 V 8.6452537e-4 H 7.3134328 V -0.64135432 C 5.2274953,-0.78955867 5.0282766,-0.92541265 5.0282766,-2.9014706 v -3.8780138 h 2.2851562 c 2.0742188,0 2.203125,0.2470072 2.4726563,1.7908025 H 10.477495 V -9.3607101 H 9.7978078 c -0.28125,1.4449924 -0.4101562,1.6549485 -2.484375,1.6549485 H 5.0282766 v -5.1995024 c 0,-0.66692 0.058594,-0.728672 0.7734375,-0.728672 h 1.6640625 c 1.6875,0 2.1679687,0.197606 2.5664064,0.815124 0.328125,0.444613 0.480469,0.926278 0.679687,1.815504 z m 3.55664,-0.728671 c 0.703125,0 1.21875,-0.555766 1.21875,-1.197985 0,-0.716321 -0.515625,-1.247387 -1.195312,-1.247387 -0.667969,0 -1.242188,0.531066 -1.242188,1.247387 0,0.642219 0.574219,1.197985 1.21875,1.197985 z M 17.690386,8.6452537e-4 V -0.59195287 C 16.24898,-0.76485794 16.096636,-0.8760112 16.096636,-2.4198065 v -7.5831225 c -1.019531,0.3952116 -2.15625,0.6545692 -3.375,0.852175 v 0.5310656 c 1.335937,0.2346569 1.417969,0.3334598 1.417969,1.7290507 v 4.4708312 c 0,1.55614566 -0.164063,1.69199965 -1.582032,1.82785363 V 8.6452537e-4 Z m 12.369141,0 V -0.59195287 C 28.747027,-0.76485794 28.61812,-0.81425939 28.61812,-2.3457043 v -4.1497218 c 0,-2.1983645 -1.148437,-3.4581014 -2.941406,-3.4581014 -0.667969,0 -1.230469,0.2346569 -1.863281,0.6545692 -0.574219,0.3705108 -1.066406,0.7286713 -1.523438,1.0621311 V -10.02763 c -1.042968,0.4199126 -2.214843,0.7039709 -3.292968,0.876876 v 0.5681167 c 1.183593,0.2099561 1.335937,0.2964087 1.335937,1.7414011 v 4.4708312 c 0,1.4943938 -0.128906,1.5931967 -1.628906,1.77845213 V 8.6452537e-4 h 5.015625 V -0.59195287 C 22.418902,-0.72780685 22.289995,-0.81425939 22.289995,-2.3457043 v -5.1377508 c 0.679688,-0.5557663 1.523438,-1.0868319 2.367188,-1.0868319 1.382812,0 2.015625,0.9262772 2.015625,2.4700725 v 3.6186562 c 0,1.56849601 -0.152344,1.75375145 -1.453125,1.88960543 V 8.6452537e-4 Z M 33.633745,-11.843133 c 0.703125,0 1.21875,-0.555766 1.21875,-1.197985 0,-0.716321 -0.515625,-1.247387 -1.195312,-1.247387 -0.667969,0 -1.242188,0.531066 -1.242188,1.247387 0,0.642219 0.574219,1.197985 1.21875,1.197985 z M 36.364214,8.6452537e-4 V -0.59195287 c -1.441406,-0.17290507 -1.59375,-0.28405833 -1.59375,-1.82785363 v -7.5831225 c -1.019531,0.3952116 -2.15625,0.6545692 -3.375,0.852175 v 0.5310656 c 1.335938,0.2346569 1.417969,0.3334598 1.417969,1.7290507 v 4.4708312 c 0,1.55614566 -0.164063,1.69199965 -1.582031,1.82785363 V 8.6452537e-4 Z M 42.616167,-9.9535275 c -2.132812,0 -5.121094,1.70435 -5.121094,5.3353565 0,2.4453718 1.886719,4.87839313 5.121094,4.87839313 2.296875,0 5.039063,-1.70435003 5.039063,-5.28595513 0,-2.6923789 -2.132813,-4.9277945 -5.015625,-4.9277945 z m -0.234375,0.7410217 c 1.898438,0 2.964844,2.0378098 2.964844,4.6931377 0,3.1246417 -1.171875,4.00151741 -2.484375,4.00151741 -1.816406,0 -3.035156,-2.05016011 -3.035156,-4.86604281 0,-2.5071235 1.21875,-3.8286123 2.519531,-3.8286123 z M 54.59273,-9.9535275 c -2.132813,0 -5.121094,1.70435 -5.121094,5.3353565 0,2.4453718 1.886719,4.87839313 5.121094,4.87839313 2.296875,0 5.039062,-1.70435003 5.039062,-5.28595513 0,-2.6923789 -2.132812,-4.9277945 -5.015625,-4.9277945 z m -0.234375,0.7410217 c 1.898437,0 2.964843,2.0378098 2.964843,4.6931377 0,3.1246417 -1.171875,4.00151741 -2.484375,4.00151741 -1.816406,0 -3.035156,-2.05016011 -3.035156,-4.86604281 0,-2.5071235 1.21875,-3.8286123 2.519531,-3.8286123 z M 72.188433,8.6452537e-4 V -0.59195287 c -1.3125,-0.17290507 -1.441406,-0.22230652 -1.441406,-1.75375143 v -4.1497218 c 0,-2.1983645 -1.148438,-3.4581014 -2.941407,-3.4581014 -0.667968,0 -1.230468,0.2346569 -1.863281,0.6545692 -0.574219,0.3705108 -1.066406,0.7286713 -1.523437,1.0621311 V -10.02763 c -1.042969,0.4199126 -2.214844,0.7039709 -3.292969,0.876876 v 0.5681167 c 1.183594,0.2099561 1.335937,0.2964087 1.335937,1.7414011 v 4.4708312 c 0,1.4943938 -0.128906,1.5931967 -1.628906,1.77845213 V 8.6452537e-4 h 5.015625 V -0.59195287 C 64.547808,-0.72780685 64.418902,-0.81425939 64.418902,-2.3457043 v -5.1377508 c 0.679687,-0.5557663 1.523437,-1.0868319 2.367187,-1.0868319 1.382813,0 2.015625,0.9262772 2.015625,2.4700725 v 3.6186562 c 0,1.56849601 -0.152344,1.75375145 -1.453125,1.88960543 V 8.6452537e-4 Z m 0,0"
         style="fill:#231f20;fill-opacity:1;fill-rule:nonzero;stroke:none"
         aria-label="Finioon"
         transform="matrix(1.3333333,0,0,1.2651451,198.9636,255.87)" />
    </g>
  </g>
</svg>
