<svg xmlns="http://www.w3.org/2000/svg" version="1.1" xmlns:xlink="http://www.w3.org/1999/xlink" width="32" height="32" x="0" y="0" viewBox="0 0 180 180" style="enable-background:new 0 0 512 512" xml:space="preserve" class=""><g><g fill="none" fill-rule="evenodd"><circle cx="90" cy="90" r="90" fill="#479951" opacity="1" data-original="#479951" class=""></circle><path fill="#FFFFFF" d="M68.434 48c-.169-.004-.42.067-.773.223-.794.397-2.366 1.622-2.414 3.03-.048.794-.248.791.448 1.297.503.542 1.005.489 2.02.091.583-.32.78-.526.976-1.064.242-.903-1.27.427-1.464-.577-.338-.933.628-1.317 1.545-2.22.021-.425.032-.772-.339-.78 0 0 .37.008 0 0zm14.778.06c-.284.03-.63.3-1.112.953-.345.684-1.833 1.718-.76 3.851.88 1.352 1.24 3.55.841 5.999-.608.696-.747.935-1.545 1.631-1.121.901-2.336.671-3.268.335-.87-.439-1.555-.664-1.952-2.057.072-2.221.245-5.856-.298-6.628-.801-1.194-2.12-.766-2.685-.405-2.71 1.852-4.05 4.98-4.868 7.468-.751 1.814-1.552 1.29-2.115.557-1.369-.959-1.465-8.457-3.118-7.224-2.648 5.655 1.52 11.85 4.406 11.248 2.083.644 3.405-2.32 4.258-5.563.583-.911 1.029-1.016 1.328-.548-.077 4.315.414 5.277 1.899 6.587 3.31 1.909 6.049.242 6.264.08l2.576-1.925c.573-.45 1.332-.478 2.142-.08.788.534.686 1.456 2.373 2.097 1.419.424 4.449.103 5.152-.81.946-1.212 1.175-1.629 1.613-2.088.675-.672 1.83-.374 1.83-.162-.107.374-.786.744-.325 1.418.803.45.99.161 1.465.061 1.68-.6 2.942-3.323 2.942-3.323.074-1.016-.7-.94-1.193-.73-.645.294-.685.395-1.33.689-.82.091-2.411.496-3.199-.415-.804-1.096-.809-2.624-1.423-3.73 0-.08-1.075-1.737-.082-1.844.501.07 1.58.278 1.75-.395.525-.656-1.135-2.517-2.265-3.455-.981-.805-2.335-.903-3.647-.081-.92.632-.783 1.337-.963 2.006-.234.769-.19 1.72.854 2.736.917 1.352 2.583 3.085 2.034 5.533 0 0-.968 1.164-2.671 1.013-.71-.116-1.866-.345-2.481-3.74-.465-2.568.116-6.167-1.342-7.852-.33-.636-.613-1.254-1.085-1.206 0 0 .472-.048 0 0zm-4.677.273c-.442.03-.93.413-1.329 1.155-.342.565-.76 3.517-.691 3.517-.273.878 1.228 1.25 1.911.121 1.025-2.07 1.03-2.952 1.098-3.83-.16-.669-.548-.991-.99-.962 0 0 .442-.03 0 0zm17.273.233c-.453.031-.814.23-.95.73-.18 1.177-.088 1.817.177 2.797.203.653 1.475 1.747 2.102 2.381 2.992 3.006 5.87 6.026 8.65 9.15.437 2.32.757 4.59.963 6.85.45 4.956.587 11.126.176 16.345 1.242.037 3.233-1.5 3.932-3.75.454-3.111-.162-9.461-.204-11.298a77.885 77.885 0 0 0-.162-2.624 164.9 164.9 0 0 1 9.45 12.727c1.122-.399.874-5.123.217-5.786-2.465-3.965-5.87-7.878-6.956-9.383-.391-.544-1.726-2.061-3.308-3.81-.291-2.497-.607-4.611-.813-5.25-.509-2.639 1.45.298 1.18-1.236-.637-2.635-2.583-4.426-4.882-6.84-.741-.785-.726-.945-1.87.193-.685 1.16-.676 2.124-.475 3.03a17.496 17.496 0 0 0-1.207-1.196c-1.985-1.273-2.108-1.343-3.756-2.382-.52-.275-1.508-.7-2.264-.648 0 0 .756-.051 0 0zm51.196.396c-.22-.026-.461.055-.732.354-.518.34-1.075.954-1.058 1.743.126 1.39.457 2.815.583 4.205.045.187.092.372.136.558-.2-.19-.375-.34-.475-.416-3.627-2.847 1.667-.465-.691-2.665-1.994-1.636-2.578-2.157-4.285-3.14-.855-.414-1.372-1.204-1.654.141-.112 1.182-.228 2.55-.122 3.547-.006.553.761 1.596 1.424 2.209a262.52 262.52 0 0 1 7.376 7.052c.523 5.032.662 9.644 1.193 14.683-.075 2.156-.963 5.018-1.803 5.29 0 0-1.285.55-2.143-.061-.624-.188-3.118-3.111-3.118-3.111-1.277-.875-2.128-.625-3.037 0-2.506 1.808-3.64 5.195-5.342 7.529-.439.52-1.676.964-3.05-.04-3.492-3.566-1.45-8.642-1.885-7.337-3.11 2.62-1.733 6.96-1.03 7.894 1.025 1.533 1.855 2.514 3.85 3.273 1.817 1 3.233.376 4.013-.324 1.83-1.417 1.853-5.04 2.712-5.756.602-1.317 2.111-1.09 2.847-.507.713.767 1.556 1.265 2.603 1.682 1.706 1.125 3.742 1.33 5.75.304 1.37-.575 2.26-1.322 3.063-2.796.862-1.722.436-10.747.244-15.768a214.442 214.442 0 0 1 3.824 4.145c.554 4.407.806 8.747.623 12.91-.13.827 3.865-2.471 3.837-4.034-.018-1.367.004-2.606 0-3.76a157.387 157.387 0 0 1 5.586 7.043c1.099-.435.722-5.083.028-5.725-1.857-2.328-4.234-4.843-6.075-6.79-.363-2.455-.859-5.353-1.084-6.241-.351-1.385-.703-3.464-1.234-5.107-.146-.642-.585-2.691-.447-2.888.216-.459 1.034.014 1.437-.517.603-.491-2.09-5.706-3.458-7.195-.491-.667-1.38-.436-2.48.649-1.022.714-.648 2.342-.258 3.89 1.012 3.948 1.915 7.969 2.63 11.978a470.898 470.898 0 0 0-4.529-4.965c-.043-.165-.203-.771-.203-.78 0-.07-.22-3.23-.407-3.982-.033-.306-.13-.394.298-.355.455.286.516.301.8.395.459.063.86-.516.583-1.053-1.419-1.957-2.838-3.921-4.257-5.878-.17-.125-.362-.258-.583-.283 0 0 .22.025 0 0zm-132.125.1c-.786-.016-1.654.348-1.315 1.055-.197.385 1.539 1.686 1.844 2.401.273.51-.271 2.15.298 2.3.523.17 1.244-1.135 1.518-2.34.152-.66.037-2.921-2.02-3.385a2.23 2.23 0 0 0-.325-.03s.112.002 0 0zm150.512.014c-.179.013-.397.23-.732.76-.805.985-1.081 2.749-.76 4.306 1.938 9.794 3.378 19.277 3.675 27.958-.166.824-.215 1.262-.732 2.3-1.144 1.096-2.405 2.469-3.593 3.131-1.188.662-3.715 1.293-4.542 1.784-2.622 1.132-2.635 2.435-.515 2.482 3.653-.317 7.977-.54 10.955-3.901.797-.942 1.735-3.494 1.776-5.057.279-9.159-.157-18.115-1.993-24.734-.118-.645-.499-2.127-.353-2.32.237-.454 1.432.044 1.858-.477.624-.477-3.092-4.033-4.393-5.553-.26-.382-.42-.696-.65-.679 0 0 .23-.017 0 0zm-38.315.152c-.151.02-.374.191-.787.598-1.02 2.494-1.38 4.53-.99 6.08 2.622 10.225 5.308 19.54 4.882 29.274 1.243.006 2.68-2.125 3.294-4.235.337-2.907-.224-4.676-.325-6.384-.1-1.709-2.588-15.57-3.091-16.862-.608-2.444 2.418-.321 2.088-1.743-1.047-1.792-3.657-4.401-4.474-5.958-.308-.417-.346-.803-.597-.77 0 0 .251-.033 0 0zm-93.294.192c-.323.042-.634.24-.746.568-.071.214.124.57-.136.679-.149.112-.715.037-.691-.558 0-.189-.186-.386-.299-.506-.112-.055-.189-.071-.393-.071-.249.007-.243.056-.38.213-.06.159-.138.314-.138.496-.031.211-.145.283-.353.314-.232 0-.177.019-.366-.071-.112-.092-.244-.128-.244-.284 0-.162-.057-.42-.122-.527-.099-.097-.255-.148-.434-.182-.975.003-1.045.84-.99 1.155-.073.06-.109 1.543 1.22 1.956 1.785.636 5.132.367 4.99-1.784 0-.19-.056-.829-.081-1.003-.182-.317-.519-.437-.84-.395 0 0 .321-.042 0 0zm23.944.02a5.06 5.06 0 0 0-1.627.335c-1.183.847-1.46 2.204-.53 3.05.907.32 1.812 1.002 1.208 1.378-2.564 2.047-9.236 5.466-9.572 6.09l-.014.02v.03c.002.006.01.017.014.021l.013.01h.014c.002.001.01.01.013.01h.014l.013.01c.34.17 4.514.166 4.976.01.004 0 .011-.008.014-.01h.013v-.01c1.435-.395 8.244-6.211 8.244-6.211-.353-.226-.678-.393-1.03-.618-.378-.245-.34-.485 0-.73 1.686-.733 1.151-2.347.27-3.08a5.703 5.703 0 0 0-2.033-.304s.617-.024 0 0zm62.585.02c-.18.014-.398.22-.732.75-.805.986-1.352 2.701-1.288 4.307 1.743 9.02 2.277 16.912 3.416 25.931.093.872-.078 2.14-.854 2.645-2.87 2.24-7.007 5.001-11.51 6.272-.485.407 1.204 2.14 3.389 2.138 3.654-.317 6.865-1.85 9.843-5.887.797-.942 2.196-2.957 2.237-4.52.279-9.159-.617-16.28-2.454-22.9-.117-.645-.037-1.408.109-1.601.236-.211 1.039.004 1.464-.517.625-.477-1.668-4.428-2.97-5.948-.26-.382-.42-.686-.65-.67 0 0 .23-.016 0 0zm-96.956.277c-.504.044-.979.35-1.207.76-.084 1.446-.096 2.892.122 4.225.88 2.338 1.16 4.395 1.587 6.79.118 3.207-2.479 1.387-2.36-.203.6-2.066.438-5.317-.095-6.141-.422-.824-.911-1.027-1.938-.892-.816-.037-2.923 1.679-3.512 4.52 0 0-.49 1.458-.705 2.756-.288 1.467-1.589 2.506-2.495-.203-.783-1.969-1.264-6.82-2.576-5.684-.375 3.787-.822 10.452 3.485 11.136 5.208.374 2.331-6.58 4.216-7.843.357-.624 1.017-.635 1.071.152v5.907c-.047 1.921 1.644 2.492 2.956 2.888 1.366-.078 2.271-.05 2.807.943.213 3.405.437 6.819.65 10.224 0 0 3.158.678 3.309-5.746.151-3.771-1.005-6.936-.326-7.67.024-.721 1.26-.757 2.115-.406 1.362.718 1.966 1.601 4.081 1.247 3.22-.663 5.16-1.83 5.207-3.679-.188-1.755-.46-3.513-1.478-5.269.142-.32-.616-1.15-.475-1.47.579.678 1.454.622 1.655 0-.548-1.349-1.401-2.642-2.78-3.201-1.14-.75-2.806-.592-3.417.973-.283 1.802.874 3.938 2.63 5.684.374.682.896 1.817.665 2.838-.934.398-1.861.232-2.644-.386 0 0-2.562-1.433-2.562-1.753.68-3.254.146-3.626-.23-4.53-.264-1.246-1.054-1.64-1.696-2.492-.64-.508-1.51-.508-1.925 0-1.132 1.468-.601 4.618.217 6.03.591 1.297 1.498 2.107 1.071 2.107-.351.733-1.085.563-1.613-.284-.755-1.75-.909-4.357-.909-5.532-.226-1.458-.479-4.57-1.762-5.36a1.387 1.387 0 0 0-1.14-.436s.393-.034 0 0zm18.29.02c-.259.024-.544.134-.881.192-1.108.264-2.144.98-1.817 2.372 1.309 5.944 2.162 10.48 3.47 16.425.202.696-.579 1.614-1.586 1.52-1.711-.865-2.136-2.618-5.057-2.543-2.114.019-4.525 1.738-4.826 3.394-.353 1.317-.478 2.744 0 3.892 1.486 1.335 3.266 1.193 4.826.891 1.284-.395 2.34-1.34 2.793-1.114.002 0 .013-.002.014 0v.01c.28.365-.027 3.457-6.047 5.846-3.7 1.242-6.645 1.539-8.23-.719-.982-1.41.071-6.785-2.346-5.543-7.148 13.77 16.746 15.693 19.416.568.172-.427.699-.855 1.07-.75.164.052.313.217.367.527-.554 13.695-18.486 14.633-21.53 10.325-.756-1.015-.983-3.276-1.058-4.63-.138-.82-.414-1.293-.733-1.48-.726-.408-1.702.656-1.911 2.503-.302 1.486-.217 1.894-.217 3.324.956 10.817 24.03 6.17 27.78-2.767 1.857-4.619-.037-8.104.584-8.532.005-.003.021-.007.027-.01l.027-.01.027-.01a.509.509 0 0 1 .081-.01c2.291 1.844 5.505.234 6.21-.405.302-.32 1.058-.526 1.586-.112 1.787.96 4.919.508 5.573-1.185.378-1.656.697-3.36.773-5.128-1.164.27-2.104.473-2.482.77a.468.468 0 0 0-.176.244c-.1.49-.197.98-.298 1.47a.31.31 0 0 1-.054.11.595.595 0 0 1-.217.153c-.412.167-1.13.071-1.166-.375-.554-1.882-2.832-2.126-4.217.79-.931.564-2.63.674-2.807-.172.227-1.957-.828-2.22-2.942-1.297-.68-3.876-1.353-7.575-2.033-11.45.88-.02 1.689.458 2.494-.294-.871-2.027-2.716-6.15-3.755-6.536L42.35 50a1.272 1.272 0 0 0-.217-.152.914.914 0 0 0-.203-.07.927.927 0 0 0-.285-.022s.097-.009 0 0zm71.301.03c-.914-.02-1.926.41-1.532 1.267-.23.467 1.965 2.051 2.319 2.918.637 1.332-.486 2.603.176 2.787.61.205 1.458-1.376 1.776-2.837.368-1.182-.76-3.604-2.359-4.104a2.513 2.513 0 0 0-.38-.03s.131.002 0 0zM57.4 51.247c.416-.032.92.254 1.166.658.262.431.13.844-.299.922-.429.079-.984-.207-1.247-.638-.263-.432-.131-.854.298-.932a.769.769 0 0 1 .082-.01s-.028.001 0 0zm103.043 1.996c-.834-.022-1.743.45-1.383 1.378-.21.505 1.779 2.223 2.101 3.161.29.668-.44 2.821.163 3.02.556.222 1.337-1.488 1.627-3.07.16-.867-.698-3.907-2.156-4.449a2.011 2.011 0 0 0-.352-.04s.119.003 0 0zm-56.971 1.053c.076.255.152.51.203.77.171.562.318 1.12.475 1.673-.658-.678-1.203-1.225-1.437-1.42-1.49-1.322.033-.868.759-1.023 0 0-.726.155 0 0zm13.124 4.824c-.322.042-.633.25-.746.577-.07.215.138.561-.122.67-.149.112-.728.046-.705-.548 0-.19-.185-.397-.298-.517-.113-.055-.189-.07-.393-.07-.249.007-.243.056-.38.212-.057.16-.135.316-.135.497-.031.211-.131.283-.34.314-.232 0-.19.019-.379-.071-.112-.092-.244-.128-.244-.284 0-.162-.057-.42-.122-.527-.099-.097-.255-.138-.434-.172-.975.002-1.032.83-.976 1.145-.073.06-.123 1.553 1.207 1.966 1.784.636 5.144.357 5.003-1.794 0-.19-.07-.829-.095-1.003-.182-.317-.519-.437-.84-.395 0 0 .321-.042 0 0zm-59.925.446c-.22-.017-.509.043-.84.192-1.58.638-2.19 2.53-1.208 3.638.918.975 2.37.618 2.563.618 1.546.145 2.468-2.168 2.468-2.168s.046-.65-1.79.577c-.773.108-.878-.1-1.071-.425-.161-.602-.127-1.212.244-1.814.17-.361 0-.59-.366-.618 0 0 .367.028 0 0zm84.712.294c-.876-.032-1.809.392-2.047 1.286.003.528.318.818.257 1.297-.091.274-.469.454-1.37.132.142-.097-.582-.861-.582-.861-.702-.32-1.64.017-2.25.314-.337.456-.585 1.238-.204 2.037 1.008 1.392 4.466 3.767 6.115 3.79.03-1.255.193-2.924.284-3.962.04-.392.162-.824.665-.923.502-.098 1.373.378 1.383-.03-.092-.798-.305-1.977-.909-2.533-.309-.343-.816-.528-1.342-.547 0 0 .526.019 0 0zm-70.121 4.367c-.024.006-.047.021-.068.03a.857.857 0 0 0-.04.02c-.175.099-.381.324-.841.568-.777.66-.916 1.12-.868 2.442.044.14 1.473 3.11 2.684 5.198.817 2.17 1.572 4.655 1.017 7.002-1.911 3.103-5.754 5.886-9.463 7.397-1.89.453-3.522.299-3.96-.01l-.013-.01c-1.085-.545-1.11-1.516-1.044-1.682v-.01l.014-.01c3.13-1.63 6.705-2.948 9.504-7.347.827-1.68 1.079-2.69.258-5.289-.32-.968-.716-1.765-1.6-2.452l.013-.01c.533-.19 1.915.57 2.129.091-.327-1.241-1.452-2.907-2.725-3.76-1.115-.756-2.328-.844-3.35-.151-1.149.478-1.393 2.195-.84 3.698.615 1.132 2.275 1.33 3.458 3.607v.01c.024.143.405 1.7-.19 2.331-.484 1.127-6.692 4.786-7.132 5.006-.005.004-.036.017-.04.02l-.014.01-.014.01-.013.01h-.027a.282.282 0 0 1-.014-.01v-.01l-.014-.02c-.018-.091.015-.324 0-.699-.04-.686.34-2.237.312-2.503v-.01l-.013-.01v-.01h-.014c-2.052.99-2.73 4.026-3.105 4.925-5.195 2.683-11.095 4.679-14.493 7.397-1.77 2.065 12.193-2.372 13.816-2.909.014.008.028.02.04.03.309.255.335 1.14 1.261 1.936 1.452 1.47 4.537 2.375 7.539 1.814 5.034-1.36 7.934-3.924 10.887-6.769.422-.459 1.084-.82 1.695-.466 2.029 3.395 7.88 5.81 15.443 6.06 1.75-1.59.913-2.373.203-2.706-.218-.108-3.761-1.14-4.311-2.168-.347-.957.495-1.805 2.183-2.442 4.856-.44 9.63-.927 14.25-2.037.046-1.16.96-2.895 1.572-3.648.425-.523.698-.574.8-.648l.014-.01.013-.01.014-.01v-.021a.253.253 0 0 0-.014-.101l-.786-.345-15.497-.05a1.906 1.906 0 0 1-.42-.163l-.028-.02-.013-.01-.014-.01-.013-.02c-.002-.001-.012-.01-.014-.01v-.01l-.013-.01v-.081c.002-.003.01-.01.013-.01.004-.006.009-.016.014-.021.075-.076.259-.148.488-.213 3.7-.377 10.275-1.182 10.711-5.908-.068-2.461-1.41-4.073-5.45-4.52-2.97.172-5.087 2.319-4.746 4.682-.142.637.288 1.886-.583 2.027-5.696.389-11.913 3.056-12.121 4.965h-.014l-.013.01-.027.01h-.028c-.009.003-.03.009-.04.01h-.041a.482.482 0 0 0-.04 0l-.055-.01c-.37-.077-.847-.533-.773-1.175-.216-3.3-1.654-7.034-3.904-9.91-.804-.6-1.153-.843-1.383-.872h-.109s.002 0 0 0zm14.833 1.743c-.323.042-.634.24-.746.567-.071.215.138.571-.122.68-.15.112-.729.046-.705-.548 0-.19-.186-.397-.298-.517-.113-.055-.176-.07-.38-.07-.249.007-.257.056-.393.212-.058.16-.136.316-.136.497-.03.211-.13.283-.339.314-.232 0-.177.019-.366-.071-.112-.092-.258-.128-.258-.284 0-.162-.043-.42-.108-.527-.099-.097-.269-.138-.447-.172-.975.003-1.033.83-.977 1.145-.073.06-.122 1.553 1.207 1.966 1.785.636 6.038.261 5.003-1.794 0-.19-.07-.829-.095-1.003-.182-.317-.518-.437-.84-.395 0 0 .322-.042 0 0zm59.86 1.834a.39.39 0 0 0-.15.01s-8.268 4.397-8.473 4.55c-.82.545-.41 2.46 0 2.24.593.17 8.918-4.047 8.759-4.54.363.015.537-2.17-.136-2.26 0 0 .673.09 0 0zm-52.046.652c.337-.027.78.059 1.206.243.617.267.998.67.95.963-.002.008.001.022 0 .03-.003.008-.025.023-.028.03l-.013.03-.014.021-.013.02a.467.467 0 0 1-.082.071c-.297.207-.981.178-1.627-.101-.611-.265-.99-.67-.949-.963.001-.008.012-.022.014-.03a.3.3 0 0 1 .054-.102c.009-.011.017-.03.027-.04l.014-.01a.57.57 0 0 1 .067-.05.944.944 0 0 1 .394-.112s-.156.012 0 0zM21.49 69.57c-4.285.059-10.56 4.198-10.725 6.496 4.522-1.623 8.963-3.185 13.559-4.864-.742-.828-.045-1.574-2.834-1.632 0 0 2.789.058 0 0zm13.884 1.44c.42.003.863.158 1.098.597.212.403.01.825-.244 1.034v.01l-.014.02c-.18.173-.81.101-1.26.101-.545-.018-.813-.084-1.14-.415-.156-.368.32-.729.53-1.003.001-.003.01-.008.013-.01a.611.611 0 0 1 .095-.081c.162-.112.444-.216.745-.244.06-.005.117-.01.177-.01 0 0-.06 0 0 0zm108.97 1.274c-.762.07-1.487.608-1.153 1.469-.21.506 1.034 2.273 1.356 3.212.29.668-.374 2.558.23 2.756.556.223 2.018-1.121 1.966-2.807.161-.866-.413-4.058-1.87-4.6a1.822 1.822 0 0 0-.53-.03s.176-.017 0 0zm-92.548 3.12c-.674.036-1.275.305-1.004 1.014-.04.514 1.903 1.14 2.02 2.33.278.491-.415 2.063.163 2.21.53.163 1.268-1.087 1.546-2.25.154-.637-.667-2.865-2.061-3.263a3.172 3.172 0 0 0-.664-.04s.224-.012 0 0zm27.7 2.828c.05-.003.095 0 .148 0h.027c1.727.35 4.272.387 6.482.557 1.8.085 2.688 1.138 1.003 1.58-1.663.426-3.26.759-3.268 2.554.219.89.173 1.357-.013 1.571a.575.575 0 0 1-.054.05c-.003.003-.012.01-.014.01l-.013.011-.014.01-.014.01-.027.01a.556.556 0 0 1-.081.03c-.023.007-.057.008-.081.01-.396.044-.97-.238-1.397-.405-1.025-.55-3.902-1.882-4.311-4.742-.059-.645.588-1.202 1.627-1.256 0 0-1.04.054 0 0zM11.838 80.43c-.108.002-.323.243-.61.516-2.549 3.035-2.776 7.566-1.37 8.918.748.638 1.98.92 2.889.72 1.601-.52 2.305-2.944 1.925-3.831-.534-.625-.958-.724-1.492-.193-1.126 1.71-1.595.54-1.694-.415-.173-1.812.062-3.481.325-4.803.14-.677.135-.915.027-.912 0 0 .108-.003 0 0zm86.843 3.985a1.513 1.513 0 0 0-.597.091c-.04 0-1.825.902-2.4 1.53-.35.2-.31.373-.203.72.273.47.755.322 1.302.1.725-.073 1.076.282 1.017.933-.335.812.149 1.114.149 1.165 0 .051.698.5 1.518.142 1.731-.494 2.81-.974 5.233-1.368.637-.01.6-1.282-.406-1.327-1.313.05-2.524.1-3.837.871-.808.14-.946-.228-1.126-.557-.205-.817.462-1.394.326-2.006.036.027-.408-.271-.976-.294 0 0 .568.023 0 0zm55.604 1.55c-.322.008-.661.041-1.152.071-.532.084-.717.258-.814.74.038.73.636.694 1.247.983.355.337.585.642-.027 1.195-.58.397-.993.617-1.572 1.014-.274.349-.445.885.393 1.054 1.546.324 5.125-1.413 5.125-1.45.58-.324.387-.942.339-.942-.339-.289-1.101-.115-1.614-.162-.244 0-1.045-.089-.664-.618.318-.33.435-.526.65-.932.242-.397.03-.665-.84-.882a6.416 6.416 0 0 0-1.071-.07s.322-.008 0 0zm-23.23 35.15c-.003.001-.01.008-.013.01-2.572.493-2.492 2.489-.84 3.364-27.158 0-68.833-.344-77.77-.344-5.001 0-20.82-.446-21.125-.446 3.393 3.708 8.307 4.464 14.738 4.54 12.063 0 67.952-.112 83.858-.112-1.131 1.5.102 3.915.99 4.357a.754.754 0 0 0 .176.06c.01.003.03 0 .04.001 1.053.186 1.517-.384 1.871-.8 1.709.112 11.323.216 12.203-.01.003-.001.01-.01.013-.01.596.654 1.186 1.273 2.319 1.165 1.982-.318 3.543-.48 3.593-3.486 0 0-.203-5.124-4.705-4.803-1.065.12-4.054.345-4.054.345-3.459-.308-5.996-.34-9.884-.446.36-.34.993-1.72.217-2.22-.202-.125-.504-.195-.922-.172h-.041c-.003 0-.01-.01-.013-.01-.011-.003-.03-.005-.04-.01a.378.378 0 0 1-.068-.05c-.005-.005-.023-.016-.028-.02-.196-.215-.304-.74-.433-.872-.002-.002-.012-.01-.014-.01-.002-.001-.012-.01-.014-.01a.255.255 0 0 0-.027-.01h-.027s.002-.001 0 0zm1.845 7.326c.004-.001.009.002.013 0 3.962.145 7.685.028 11.647.173.628.398.314 1.312-.095 1.479a.545.545 0 0 1-.068.02c-.015.003-.039 0-.054 0s-.04.003-.054 0c-1.288-.024-2.034-.047-3.322-.07a.427.427 0 0 0-.027-.143c-.305-.676-2.517-.63-3.037-.1a.854.854 0 0 0-.027.03c-.009.01-.02.03-.027.04a.508.508 0 0 0-.027.05c-.009.02-.01.05-.014.072-.003.024-.016.055-.014.08-1.739.157-3.304-.042-5.043-.09-.51-.475-.45-1.334.149-1.54 0 0-.6.206 0 0z" opacity="1" data-original="#ffffff" class=""></path></g><path d="M172.05 127.039C157.93 158.269 126.501 180 90 180c-49.706 0-90-40.294-90-90 0-26.631 11.567-50.56 29.95-67.039C24.844 34.257 22 46.797 22 60c0 49.706 40.294 90 90 90 23.074 0 44.12-8.684 60.05-22.961z" opacity="1" fill="#000000" data-original="#00000020" class="" fill-opacity="0.125"></path></g></svg>